# xmcd
#
# Track frame offsets:
#	150
#	6782
#	23353
#	38573
#	42921
#	50971
#	54144
#	60466
#	73335
#	82998
#	87012
#	104499
#	107013
#	113922
#	125953
#	136271
#	142375
#	156340
#	160551
#	167528
#	181904
#	193616
#	198410
#	209054
#	212174
#
# Disc length: 2855 seconds
#
# Revision: 0
# Processed by: cddbd v1.5.2PL0 Copyright (c) Steve Scherf et al.
# Submitted via: EasyCDDAExtractor 2010.6.0.0
#
DISCID=640b2519
DTITLE=Various Artist - Legend Begins Rare And Unreleased Recordings Cd 1
DYEAR=1900
DGENRE=
TTITLE0=Hank Williams - Happy Rovin' Cowboy (Theme)
TTITLE1=Hank Williams - Wedding Bells
TTITLE2=Hank Williams - Lovesick Blues
TTITLE3=Jerry Rivers - Old Joe Clark
TTITLE4=Hank Williams and Audrey - Where The Soul Never Dies
TTITLE5=Jerry Rivers - Sally Goodin
TTITLE6=Hank Williams - Happy Rovin' Cowboy (Theme)(2nd Vers.)
TTITLE7=Hank Williams - You're Gonna Change
TTITLE8=Audrey Williams - There's A Bluebird On Your Windowsill
TTITLE9=Jerry Rivers - Fire On The Mountain
TTITLE10=Hank Williams - Tramp On The Street
TTITLE11=Jerry Rivers - Sally Goodin (2nd Vers.)
TTITLE12=Hank Williams - Happy Rovin' Cowboy (Theme)(3rd Vers.)
TTITLE13=Hank Williams - I'm A Long Gone Daddy
TTITLE14=Audrey Williams - I'm Telling You
TTITLE15=Jerry Rivers - Bill Cheatham
TTITLE16=Hank Williams - When Got Comes And Gathers His Jewels
TTITLE17=Jerry Rivers - Sally Goodin (3rd Vers.)
TTITLE18=Hank Williams - Happy Rovin' Cowboy (Theme)(4th Vers.)
TTITLE19=Hank Williams - Lost Highway
TTITLE20=Hank Williams and Audrey - I Want To Live And Love
TTITLE21=Jerry Rivers - Bile Dem Cabbage Down
TTITLE22=Hank Williams - I'll Have A New Life
TTITLE23=Bob McNett - Fingers On Fire
TTITLE24=Jerry Rivers - Sally Goodin' (4th Vers.)
EXTD=
EXTT0=
EXTT1=
EXTT2=
EXTT3=
EXTT4=
EXTT5=
EXTT6=
EXTT7=
EXTT8=
EXTT9=
EXTT10=
EXTT11=
EXTT12=
EXTT13=
EXTT14=
EXTT15=
EXTT16=
EXTT17=
EXTT18=
EXTT19=
EXTT20=
EXTT21=
EXTT22=
EXTT23=
EXTT24=
PLAYORDER=
